<svg xmlns="http://www.w3.org/2000/svg" version="1.1" xmlns:xlink="http://www.w3.org/1999/xlink" xmlns:svgjs="http://svgjs.dev/svgjs" width="1500" height="1500" viewBox="0 0 1500 1500"><rect width="1500" height="1500" fill="#ffffff"></rect><g transform="matrix(0.6666666666666666,0,0,0.6666666666666666,249.39393939393943,572.2765859404338)"><svg viewBox="0 0 396 141" data-background-color="#fae0e7" preserveAspectRatio="xMidYMid meet" height="534" width="1500" xmlns="http://www.w3.org/2000/svg" xmlns:xlink="http://www.w3.org/1999/xlink"><g id="tight-bounds" transform="matrix(1,0,0,1,0.2400000000000091,-0.10954667865499346)"><svg viewBox="0 0 395.52 141.21909335731002" height="141.21909335731002" width="395.52"><g><svg viewBox="0 0 684.5922120643299 244.43135999999998" height="141.21909335731002" width="395.52"><g transform="matrix(1,0,0,1,289.0722120643299,84.39662845360824)"><svg viewBox="0 0 395.52 75.6381030927835" height="75.6381030927835" width="395.52"><g id="textblocktransform"><svg viewBox="0 0 395.52 75.6381030927835" height="75.6381030927835" width="395.52" id="textblock"><g><svg viewBox="0 0 395.52 75.6381030927835" height="75.6381030927835" width="395.52"><g transform="matrix(1,0,0,1,0,0)"><svg width="395.52" viewBox="1.1 -36.75 193.98000000000002 37.1" height="75.6381030927835" data-palette-color="#13472e"><path d="M7.1 0.2L7.1 0.2Q5.3 0.2 3.85-1.3 2.4-2.8 2.4-6.25L2.4-6.25Q2.4-9.05 3.05-11.75 3.7-14.45 4.53-17.23 5.35-20 5.93-22.98 6.5-25.95 6.3-29.25L6.3-29.25Q4.95-29.05 3.65-28.55 2.35-28.05 1.1-27.1L1.1-27.1Q1.1-30.25 1.65-32.23 2.2-34.2 3.8-35.1 5.4-36 8.55-36L8.55-36Q10.25-36 12.35-35.75 14.45-35.5 16.68-35.25 18.9-35 20.9-35L20.9-35Q22.85-35 24.4-35.38 25.95-35.75 26.8-36.75L26.8-36.75Q27.8-36.1 28.33-34.98 28.85-33.85 28.85-32.55L28.85-32.55Q28.85-31.2 28.23-29.93 27.6-28.65 26.3-27.83 25-27 22.9-27L22.9-27Q20.7-27 18.1-27.7 15.5-28.4 12.75-28.9L12.75-28.9Q13-27.8 13.13-26.7 13.25-25.6 13.25-24.45L13.25-24.45Q13.25-23.2 13.15-21.98 13.05-20.75 12.85-19.45L12.85-19.45Q13.9-20 15.4-20.45 16.9-20.9 18.48-21.2 20.05-21.5 21.3-21.5L21.3-21.5Q22.1-21.5 22.7-21.35L22.7-21.35Q23.2-20.3 23.2-18.8L23.2-18.8Q23.2-16.4 22-13.9L22-13.9 21.65-13.75Q19.8-14.75 17.38-15.3 14.95-15.85 12.3-16.05L12.3-16.05Q11.8-13.2 11.35-10.25 10.9-7.3 10.9-4.2L10.9-4.2Q10.9-3.55 10.93-2.85 10.95-2.15 11-1.45L11-1.45Q9.35 0.2 7.1 0.2ZM39.65 0.35L39.65 0.35Q36 0.35 33.6-1.13 31.2-2.6 30-5.03 28.8-7.45 28.8-10.25L28.8-10.25Q28.8-12.9 29.82-15.58 30.85-18.25 32.82-20.45 34.8-22.65 37.62-24 40.45-25.35 44-25.35L44-25.35Q48.4-25.35 50.42-23.38 52.45-21.4 52.45-18.6L52.45-18.6Q52.45-16.2 51.17-14.18 49.9-12.15 47.8-10.93 45.7-9.7 43.2-9.7L43.2-9.7Q41.9-9.7 40.55-10.1 39.2-10.5 37.9-11.35L37.9-11.35Q38.15-8.25 39.7-6.85 41.25-5.45 43.4-5.45L43.4-5.45Q44.9-5.45 46.4-6.03 47.9-6.6 49.17-7.53 50.45-8.45 51.15-9.5L51.15-9.5 51.5-9.25Q51.5-6.65 50.42-4.83 49.35-3 47.6-1.85 45.85-0.7 43.77-0.18 41.7 0.35 39.65 0.35ZM40.8-13.15L40.8-13.15Q42.4-13.15 43.4-14.08 44.4-15 44.9-16.25 45.4-17.5 45.4-18.45L45.4-18.45Q45.4-19.6 44.75-20.38 44.1-21.15 42.95-21.15L42.95-21.15Q42.05-21.15 40.97-20.5 39.9-19.85 39.05-18.28 38.2-16.7 37.95-13.9L37.95-13.9Q39.55-13.15 40.8-13.15ZM60.65 0.2L60.65 0.2Q59.3 0.2 58.02-0.48 56.75-1.15 55.95-2.65 55.15-4.15 55.15-6.5L55.15-6.5Q55.15-8.6 55.72-11.43 56.3-14.25 57.02-17.3 57.75-20.35 58.3-23.25 58.85-26.15 58.8-28.4L58.8-28.4Q58.8-30.55 58.3-31.45L58.3-31.45 58.25-31.6Q58.8-33.2 60.2-34.1 61.6-35 63.15-35L63.15-35Q64.9-35 66.27-33.68 67.65-32.35 67.65-29.25L67.65-29.25Q67.65-27.6 67.25-25.33 66.85-23.05 66.3-20.48 65.75-17.9 65.17-15.4 64.6-12.9 64.2-10.8 63.8-8.7 63.8-7.35L63.8-7.35Q63.8-5.95 64.2-5.43 64.6-4.9 65.1-4.9L65.1-4.9Q65.65-4.9 66.15-5.33 66.65-5.75 66.8-6.1L66.8-6.1 67.2-6Q67.15-4.2 66.17-2.8 65.2-1.4 63.72-0.6 62.25 0.2 60.65 0.2ZM75.94 0.2L75.94 0.2Q74.59 0.2 73.32-0.48 72.04-1.15 71.24-2.65 70.44-4.15 70.44-6.5L70.44-6.5Q70.44-8.6 71.02-11.43 71.59-14.25 72.32-17.3 73.04-20.35 73.59-23.25 74.14-26.15 74.09-28.4L74.09-28.4Q74.09-30.55 73.59-31.45L73.59-31.45 73.54-31.6Q74.09-33.2 75.49-34.1 76.89-35 78.44-35L78.44-35Q80.19-35 81.57-33.68 82.94-32.35 82.94-29.25L82.94-29.25Q82.94-27.6 82.54-25.33 82.14-23.05 81.59-20.48 81.04-17.9 80.47-15.4 79.89-12.9 79.49-10.8 79.09-8.7 79.09-7.35L79.09-7.35Q79.09-5.95 79.49-5.43 79.89-4.9 80.39-4.9L80.39-4.9Q80.94-4.9 81.44-5.33 81.94-5.75 82.09-6.1L82.09-6.1 82.49-6Q82.44-4.2 81.47-2.8 80.49-1.4 79.02-0.6 77.54 0.2 75.94 0.2ZM100.14 0.2L100.14 0.2Q98.34 0.2 96.89-1.3 95.44-2.8 95.44-6.25L95.44-6.25Q95.44-9.05 96.09-11.75 96.74-14.45 97.56-17.23 98.39-20 98.96-22.98 99.54-25.95 99.34-29.25L99.34-29.25Q97.99-29.05 96.69-28.55 95.39-28.05 94.14-27.1L94.14-27.1Q94.14-30.25 94.69-32.23 95.24-34.2 96.84-35.1 98.44-36 101.59-36L101.59-36Q103.29-36 105.39-35.75 107.49-35.5 109.71-35.25 111.94-35 113.94-35L113.94-35Q115.89-35 117.44-35.38 118.99-35.75 119.84-36.75L119.84-36.75Q120.84-36.1 121.36-34.98 121.89-33.85 121.89-32.55L121.89-32.55Q121.89-31.2 121.26-29.93 120.64-28.65 119.34-27.83 118.04-27 115.94-27L115.94-27Q113.74-27 111.14-27.7 108.54-28.4 105.79-28.9L105.79-28.9Q106.04-27.8 106.16-26.7 106.29-25.6 106.29-24.45L106.29-24.45Q106.29-23.2 106.19-21.98 106.09-20.75 105.89-19.45L105.89-19.45Q106.94-20 108.44-20.45 109.94-20.9 111.51-21.2 113.09-21.5 114.34-21.5L114.34-21.5Q115.14-21.5 115.74-21.35L115.74-21.35Q116.24-20.3 116.24-18.8L116.24-18.8Q116.24-16.4 115.04-13.9L115.04-13.9 114.69-13.75Q112.84-14.75 110.41-15.3 107.99-15.85 105.34-16.05L105.34-16.05Q104.84-13.2 104.39-10.25 103.94-7.3 103.94-4.2L103.94-4.2Q103.94-3.55 103.96-2.85 103.99-2.15 104.04-1.45L104.04-1.45Q102.39 0.2 100.14 0.2ZM127.79 0.2L127.79 0.2Q125.99 0.2 124.59-1.28 123.19-2.75 123.19-5.45L123.19-5.45Q123.19-6.75 123.49-8.4 123.79-10.05 124.19-11.78 124.59-13.5 124.89-15.03 125.19-16.55 125.19-17.55L125.19-17.55Q125.19-18.6 124.81-19.23 124.44-19.85 123.84-19.85L123.84-19.85Q122.89-19.85 121.89-18.55L121.89-18.55 121.59-18.75Q121.54-19.55 121.94-20.65 122.34-21.75 123.19-22.78 124.04-23.8 125.36-24.5 126.69-25.2 128.49-25.2L128.49-25.2Q131.14-25.2 132.34-23.68 133.54-22.15 133.54-20L133.54-20Q133.54-19.65 133.51-19.28 133.49-18.9 133.44-18.55L133.44-18.55Q135.24-21.8 137.21-23.53 139.19-25.25 140.89-25.25L140.89-25.25Q142.49-25.25 143.24-24 143.99-22.75 143.99-21L143.99-21Q143.99-19.4 143.36-17.75 142.74-16.1 141.51-15.03 140.29-13.95 138.54-14L138.54-14 138.34-14.1Q138.29-15.4 137.49-16.15 136.69-16.9 135.69-16.9L135.69-16.9Q134.34-16.9 133.16-15.55 131.99-14.2 131.99-11.65L131.99-11.65Q131.99-10.1 132.34-8.3 132.69-6.5 132.69-5.25L132.69-5.25Q132.69-3.75 131.99-2.5 131.29-1.25 130.19-0.53 129.09 0.2 127.79 0.2ZM156.23 0.35L156.23 0.35Q152.58 0.35 150.18-1.13 147.78-2.6 146.58-5.03 145.38-7.45 145.38-10.25L145.38-10.25Q145.38-12.9 146.41-15.58 147.43-18.25 149.41-20.45 151.38-22.65 154.21-24 157.03-25.35 160.58-25.35L160.58-25.35Q164.98-25.35 167.01-23.38 169.03-21.4 169.03-18.6L169.03-18.6Q169.03-16.2 167.76-14.18 166.48-12.15 164.38-10.93 162.28-9.7 159.78-9.7L159.78-9.7Q158.48-9.7 157.13-10.1 155.78-10.5 154.48-11.35L154.48-11.35Q154.73-8.25 156.28-6.85 157.83-5.45 159.98-5.45L159.98-5.45Q161.48-5.45 162.98-6.03 164.48-6.6 165.76-7.53 167.03-8.45 167.73-9.5L167.73-9.5 168.08-9.25Q168.08-6.65 167.01-4.83 165.93-3 164.18-1.85 162.43-0.7 160.36-0.18 158.28 0.35 156.23 0.35ZM157.38-13.15L157.38-13.15Q158.98-13.15 159.98-14.08 160.98-15 161.48-16.25 161.98-17.5 161.98-18.45L161.98-18.45Q161.98-19.6 161.33-20.38 160.68-21.15 159.53-21.15L159.53-21.15Q158.63-21.15 157.56-20.5 156.48-19.85 155.63-18.28 154.78-16.7 154.53-13.9L154.53-13.9Q156.13-13.15 157.38-13.15ZM182.28 0.35L182.28 0.35Q178.63 0.35 176.23-1.13 173.83-2.6 172.63-5.03 171.43-7.45 171.43-10.25L171.43-10.25Q171.43-12.9 172.46-15.58 173.48-18.25 175.46-20.45 177.43-22.65 180.26-24 183.08-25.35 186.63-25.35L186.63-25.35Q191.03-25.35 193.06-23.38 195.08-21.4 195.08-18.6L195.08-18.6Q195.08-16.2 193.81-14.18 192.53-12.15 190.43-10.93 188.33-9.7 185.83-9.7L185.83-9.7Q184.53-9.7 183.18-10.1 181.83-10.5 180.53-11.35L180.53-11.35Q180.78-8.25 182.33-6.85 183.88-5.45 186.03-5.45L186.03-5.45Q187.53-5.45 189.03-6.03 190.53-6.6 191.81-7.53 193.08-8.45 193.78-9.5L193.78-9.5 194.13-9.25Q194.13-6.65 193.06-4.83 191.98-3 190.23-1.85 188.48-0.7 186.41-0.18 184.33 0.35 182.28 0.35ZM183.43-13.15L183.43-13.15Q185.03-13.15 186.03-14.08 187.03-15 187.53-16.25 188.03-17.5 188.03-18.45L188.03-18.45Q188.03-19.6 187.38-20.38 186.73-21.15 185.58-21.15L185.58-21.15Q184.68-21.15 183.61-20.5 182.53-19.85 181.68-18.28 180.83-16.7 180.58-13.9L180.58-13.9Q182.18-13.15 183.43-13.15Z" opacity="1" transform="matrix(1,0,0,1,0,0)" fill="#000000" class="wordmark-text-0" data-fill-palette-color="primary" id="text-0"></path></svg></g></svg></g></svg></g></svg></g><g><svg viewBox="0 0 244.43135999999998 244.43135999999998" height="244.43135999999998" width="244.43135999999998"><g><svg viewBox="0 0 244.43135999999998 244.43135999999998" height="244.43135999999998" width="244.43135999999998"><g transform="matrix(1,0,0,1,68.09498551115672,64.60265593644993)"><svg viewBox="0 0 108.24138897768653 115.22604812710013" height="115.22604812710013" width="108.24138897768653"><g><svg xmlns="http://www.w3.org/2000/svg" xmlns:xlink="http://www.w3.org/1999/xlink" version="1.1" x="0" y="0" viewBox="23.4 22.599999999999998 51.413125463736286 54.73073955352095" style="enable-background:new 0 0 100 100;" xml:space="preserve" height="115.22604812710013" width="108.24138897768653" class="icon-cg-0" data-fill-palette-color="accent" id="cg-0"><g fill="#13472e" data-fill-palette-color="accent"><path d="M40 76.7C40 76.7 39.9 76.7 40 76.7l-16.6-1.2 13.8-4.3L25.4 59.3l15.1 6.9-2.2-11.8 8.1 12.1c0.3 0.5 0.2 1.1-0.3 1.4s-1.1 0.2-1.4-0.3l-2.7-4 1.1 6-8.6-3.9 6.4 6.4L34 74.3l6 0.5c0.6 0 1 0.5 0.9 1.1C40.9 76.3 40.5 76.7 40 76.7z" fill="#000000" data-fill-palette-color="accent"></path></g><g fill="#13472e" data-fill-palette-color="accent"><circle cx="45.2" cy="28.8" r="6.2" fill="#000000" data-fill-palette-color="accent"></circle><path d="M74.3 64.9l-8.2-8.2c-0.1-0.1-0.1-0.1-0.2-0.1-0.4-0.4-0.9-0.7-1.5-0.7h-0.3l0 0h-4.8c0.3-1.5 0.2-3-0.3-5.3l7.7 0.8c1.1 0.1 2.1-0.7 2.2-1.8l0.1-1.4c0.1-1.1-0.7-2.1-1.8-2.2l-10-1c0-0.1-0.1-0.2-0.1-0.3-0.1-0.2-0.2-0.5-0.3-0.7 0-0.1-0.1-0.1-0.1-0.2l6.7-5.4c0.8-0.7 1-1.9 0.3-2.8l-0.9-1.1c-0.7-0.8-1.9-1-2.8-0.3l-6.2 5c-0.1-0.1-0.2-0.2-0.3-0.3-0.1-0.2-0.3-0.3-0.4-0.5-0.1-0.1-0.3-0.2-0.4-0.4-0.1-0.1-0.2-0.2-0.3-0.3l0 0c-1.6-1.3-3.3-1.9-4.8-1.5-0.1 0-0.2 0.1-0.2 0.1l0 0c-0.1 0-0.2 0.1-0.3 0.2H47c-0.2 0.1-0.4 0.2-0.5 0.3 0 0-0.1 0-0.1 0.1-0.2 0.1-0.3 0.3-0.5 0.5 0 0 0 0-0.1 0.1-0.2 0.2-0.3 0.4-0.5 0.6 0 0 0 0 0 0.1-0.2 0.2-0.3 0.5-0.4 0.7l0 0c-1.5 3-1.7 8-0.2 13.4l0 0 0 0v0.1c0.1 0.5 0.3 1 0.4 1.4 0.1 0.2 0.2 0.4 0.2 0.6 0.1 0.3 0.2 0.6 0.3 0.8s0.2 0.5 0.3 0.7 0.2 0.5 0.3 0.7 0.2 0.5 0.3 0.7 0.2 0.4 0.3 0.6c0.1 0.2 0.2 0.4 0.4 0.6 0.1 0.2 0.3 0.5 0.4 0.7 0.2 0.3 0.4 0.6 0.6 0.9 0.1 0.2 0.3 0.4 0.4 0.5 0.1 0.2 0.3 0.3 0.4 0.5 0.1 0.2 0.3 0.3 0.4 0.4l0 0L51 75.6c0.1 1.1 1.1 1.9 2.2 1.7l1.4-0.2c1.1-0.1 1.9-1.1 1.7-2.2l-1.5-13.3c0.2-0.1 0.4-0.2 0.6-0.2 0.1 0 0.2-0.1 0.2-0.1l0 0c0.1 0 0.1-0.1 0.2-0.1H63l7.4 7.4c0.8 0.8 2 0.8 2.8 0l1-1C75 67 75 65.7 74.3 64.9z" fill="#000000" data-fill-palette-color="accent"></path></g></svg></g></svg></g><g id="text-0"><path d="M21.536 94.182v0c-0.24 0.694-0.745 1.22-1.517 1.579-0.774 0.365-1.828 0.317-3.164-0.145v0c-1.079-0.373-2.099-0.866-3.059-1.478-0.952-0.617-1.91-1.268-2.874-1.953-0.962-0.692-1.98-1.346-3.054-1.962-1.072-0.622-2.257-1.115-3.555-1.478v0c-0.103 0.547-0.144 1.104-0.125 1.672 0.017 0.574 0.126 1.165 0.325 1.774v0c-1.214-0.42-2.167-0.868-2.858-1.344-0.691-0.476-1.102-1.086-1.234-1.829-0.134-0.737 0.009-1.712 0.429-2.926v0c0.227-0.655 0.529-1.374 0.908-2.157 0.376-0.776 0.761-1.578 1.155-2.405 0.394-0.827 0.724-1.627 0.991-2.397v0c0.26-0.752 0.42-1.455 0.481-2.11 0.065-0.646-0.038-1.2-0.31-1.66v0c0.384-0.299 0.826-0.477 1.327-0.534 0.506-0.048 1.009 0.014 1.51 0.188v0c0.52 0.18 0.987 0.474 1.4 0.883 0.41 0.415 0.686 0.928 0.827 1.537 0.148 0.612 0.081 1.326-0.201 2.142v0c-0.293 0.848-0.748 1.726-1.364 2.635-0.618 0.915-1.207 1.869-1.767 2.863v0c0.457 0.05 0.906 0.126 1.346 0.227 0.442 0.095 0.884 0.219 1.327 0.373v0c0.488 0.169 0.96 0.354 1.416 0.554 0.462 0.203 0.93 0.429 1.404 0.68v0c-0.072-0.478-0.095-1.036-0.068-1.674 0.026-0.638 0.087-1.282 0.182-1.932 0.095-0.65 0.226-1.216 0.393-1.698v0c0.107-0.308 0.229-0.568 0.367-0.78v0c0.471-0.053 0.996 0.021 1.574 0.221v0c0.931 0.322 1.799 0.881 2.602 1.676v0l0.017 0.233c-0.632 0.58-1.216 1.302-1.752 2.166-0.536 0.865-1.019 1.794-1.45 2.789v0c1.032 0.572 2.089 1.143 3.173 1.712 1.077 0.567 2.213 1.056 3.408 1.469v0c0.251 0.087 0.515 0.174 0.793 0.264 0.274 0.08 0.55 0.158 0.826 0.231v0c0.414 0.862 0.471 1.727 0.171 2.594z" fill="#000000" data-fill-palette-color="accent"></path><path d="M39.725 59.491v0c-0.923 1.176-1.925 1.962-3.005 2.359-1.075 0.401-2.156 0.49-3.243 0.267-1.083-0.228-2.073-0.694-2.971-1.399v0c-0.855-0.671-1.583-1.511-2.184-2.517-0.605-1.002-1.01-2.098-1.217-3.288-0.206-1.19-0.169-2.41 0.111-3.659 0.275-1.253 0.859-2.449 1.753-3.587v0c1.112-1.417 2.242-2.202 3.39-2.355 1.148-0.153 2.171 0.123 3.07 0.828v0c0.775 0.608 1.325 1.372 1.648 2.292 0.329 0.924 0.427 1.877 0.294 2.862-0.133 0.984-0.516 1.88-1.15 2.687v0c-0.327 0.417-0.725 0.792-1.193 1.124-0.474 0.328-1.01 0.594-1.61 0.797v0c1.063 0.705 2.014 0.984 2.853 0.839 0.839-0.145 1.53-0.562 2.071-1.251v0c0.382-0.487 0.671-1.042 0.867-1.666 0.191-0.628 0.298-1.265 0.321-1.912 0.025-0.637-0.043-1.2-0.204-1.689v0l0.253-0.074c0.834 0.655 1.411 1.384 1.73 2.188 0.315 0.809 0.437 1.639 0.366 2.49-0.072 0.851-0.287 1.676-0.646 2.474-0.353 0.803-0.788 1.533-1.304 2.19zM33.647 53.827v0c0.403-0.513 0.58-1.048 0.533-1.604-0.042-0.552-0.199-1.068-0.47-1.548-0.28-0.479-0.573-0.839-0.878-1.078v0c-0.369-0.29-0.758-0.427-1.167-0.411-0.419 0.017-0.773 0.209-1.063 0.579v0c-0.227 0.289-0.372 0.689-0.437 1.199-0.06 0.506 0.057 1.094 0.351 1.766 0.294 0.671 0.858 1.4 1.694 2.185v0c0.643-0.324 1.123-0.687 1.437-1.088z" fill="#000000" data-fill-palette-color="accent"></path><path d="M63.318 37.25v0c-0.455 0.31-0.977 0.498-1.567 0.563-0.586 0.07-1.185-0.055-1.799-0.377-0.618-0.327-1.197-0.886-1.737-1.678v0c-0.483-0.707-0.951-1.605-1.406-2.694-0.46-1.085-0.919-2.228-1.377-3.43-0.454-1.196-0.921-2.346-1.402-3.449-0.485-1.109-0.994-2.037-1.528-2.783v0c-0.494-0.724-0.931-1.183-1.31-1.377v0l-0.077-0.059c-0.182-0.665-0.141-1.311 0.124-1.935 0.265-0.625 0.658-1.115 1.18-1.472v0c0.595-0.406 1.276-0.541 2.043-0.406 0.769 0.126 1.511 0.713 2.227 1.763v0c0.379 0.556 0.764 1.264 1.154 2.126 0.39 0.861 0.789 1.79 1.197 2.787 0.405 0.991 0.798 1.977 1.18 2.959 0.384 0.972 0.749 1.858 1.097 2.658 0.346 0.809 0.674 1.441 0.984 1.895v0c0.322 0.472 0.614 0.749 0.877 0.833 0.253 0.082 0.464 0.066 0.633-0.049v0c0.185-0.126 0.314-0.317 0.387-0.572 0.069-0.261 0.088-0.468 0.058-0.62v0l0.237-0.088c0.397 0.618 0.592 1.278 0.587 1.982-0.004 0.694-0.164 1.346-0.48 1.956-0.316 0.61-0.743 1.099-1.282 1.467z" fill="#000000" data-fill-palette-color="accent"></path><path d="M89.595 24.423v0c-0.522 0.173-1.076 0.21-1.66 0.111-0.582-0.093-1.125-0.379-1.627-0.857-0.504-0.484-0.907-1.181-1.209-2.091v0c-0.27-0.813-0.474-1.805-0.612-2.976-0.145-1.169-0.272-2.395-0.382-3.676-0.108-1.275-0.242-2.508-0.401-3.701-0.162-1.2-0.397-2.231-0.705-3.096v0c-0.276-0.832-0.57-1.393-0.881-1.684v0l-0.058-0.078c0.007-0.69 0.224-1.299 0.651-1.827 0.426-0.528 0.939-0.892 1.539-1.091v0c0.684-0.227 1.376-0.17 2.076 0.171 0.704 0.332 1.257 1.101 1.657 2.307v0c0.212 0.639 0.387 1.425 0.525 2.361 0.138 0.935 0.267 1.938 0.386 3.008 0.117 1.064 0.224 2.121 0.322 3.17 0.102 1.04 0.21 1.993 0.324 2.856 0.111 0.873 0.253 1.57 0.426 2.093v0c0.18 0.542 0.385 0.889 0.615 1.042 0.221 0.149 0.429 0.191 0.622 0.127v0c0.213-0.071 0.389-0.219 0.529-0.444 0.138-0.232 0.213-0.425 0.226-0.58v0l0.252-0.019c0.212 0.703 0.218 1.392 0.02 2.066-0.194 0.666-0.527 1.249-0.999 1.75-0.471 0.5-1.017 0.853-1.636 1.058z" fill="#000000" data-fill-palette-color="accent"></path><path d="M143.552 21.608v0c-0.712-0.177-1.282-0.634-1.708-1.37-0.433-0.738-0.479-1.793-0.138-3.165v0c0.275-1.108 0.675-2.168 1.2-3.179 0.529-1.003 1.093-2.015 1.69-3.036 0.604-1.02 1.164-2.092 1.682-3.217 0.524-1.123 0.909-2.348 1.155-3.673v0c-0.554-0.054-1.113-0.046-1.677 0.024-0.57 0.068-1.149 0.229-1.737 0.482v0c0.31-1.247 0.671-2.235 1.084-2.966 0.413-0.731 0.983-1.195 1.711-1.391 0.722-0.199 1.706-0.143 2.953 0.166v0c0.673 0.167 1.416 0.404 2.229 0.712 0.806 0.306 1.639 0.618 2.498 0.936 0.859 0.319 1.685 0.576 2.476 0.773v0c0.772 0.192 1.486 0.289 2.144 0.292 0.649 0.007 1.192-0.145 1.627-0.458v0c0.332 0.356 0.548 0.781 0.649 1.275 0.093 0.499 0.076 1.006-0.052 1.521v0c-0.133 0.534-0.384 1.025-0.755 1.472-0.377 0.446-0.863 0.766-1.457 0.962-0.596 0.202-1.313 0.199-2.152-0.01v0c-0.871-0.216-1.786-0.591-2.746-1.124-0.967-0.534-1.97-1.036-3.008-1.504v0c-0.009 0.46-0.045 0.913-0.107 1.36-0.055 0.448-0.14 0.9-0.253 1.355v0c-0.125 0.501-0.267 0.988-0.426 1.46-0.161 0.478-0.345 0.965-0.552 1.459v0c0.47-0.114 1.023-0.187 1.661-0.217 0.638-0.031 1.285-0.027 1.941 0.01 0.656 0.037 1.232 0.117 1.727 0.24v0c0.317 0.079 0.586 0.177 0.808 0.295v0c0.095 0.465 0.068 0.994-0.079 1.588v0c-0.238 0.956-0.717 1.87-1.438 2.741v0l-0.23 0.038c-0.634-0.578-1.405-1.095-2.314-1.552-0.909-0.457-1.878-0.856-2.907-1.196v0c-0.478 1.079-0.952 2.183-1.422 3.313-0.468 1.123-0.855 2.298-1.16 3.525v0c-0.064 0.257-0.128 0.528-0.192 0.814-0.056 0.28-0.108 0.561-0.157 0.843v0c-0.822 0.489-1.678 0.623-2.568 0.402z" fill="#000000" data-fill-palette-color="accent"></path><path d="M177.281 34.925v0c-0.617-0.398-1.001-1.006-1.153-1.824-0.161-0.816 0.059-1.689 0.659-2.62v0c0.287-0.445 0.665-0.918 1.133-1.416 0.468-0.499 0.964-0.999 1.49-1.502 0.52-0.505 1.001-0.988 1.443-1.447 0.438-0.453 0.77-0.854 0.994-1.202v0c0.232-0.36 0.351-0.688 0.356-0.984 0.014-0.298-0.084-0.515-0.295-0.652v0c-0.326-0.21-0.803-0.203-1.434 0.022v0l-0.088-0.202c0.16-0.285 0.43-0.572 0.81-0.861 0.38-0.288 0.83-0.516 1.35-0.682 0.522-0.157 1.087-0.212 1.697-0.167 0.612 0.055 1.226 0.281 1.843 0.68v0c0.914 0.59 1.407 1.28 1.479 2.07 0.072 0.791-0.129 1.554-0.605 2.291v0c-0.077 0.12-0.164 0.242-0.26 0.366-0.087 0.122-0.177 0.237-0.272 0.346v0c1.335-0.716 2.534-1.151 3.597-1.306 1.063-0.155 1.885-0.045 2.468 0.33v0c0.548 0.354 0.811 0.831 0.788 1.431-0.019 0.594-0.223 1.191-0.609 1.79v0c-0.354 0.548-0.819 1.037-1.395 1.466-0.585 0.431-1.205 0.695-1.858 0.792-0.662 0.099-1.287-0.054-1.876-0.459v0l-0.069-0.117c0.27-0.457 0.348-0.904 0.234-1.341-0.108-0.434-0.334-0.761-0.676-0.983v0c-0.463-0.298-1.046-0.347-1.75-0.146-0.698 0.205-1.329 0.744-1.893 1.618v0c-0.346 0.537-0.659 1.152-0.937 1.846-0.278 0.694-0.555 1.255-0.831 1.684v0c-0.332 0.514-0.757 0.911-1.278 1.19-0.516 0.274-1.045 0.41-1.585 0.408-0.539 0.008-1.031-0.132-1.477-0.419z" fill="#000000" data-fill-palette-color="accent"></path><path d="M204.666 59.443v0c-0.93-1.171-1.462-2.328-1.597-3.47-0.14-1.138 0.024-2.21 0.493-3.216 0.473-1 1.156-1.855 2.05-2.566v0c0.852-0.676 1.837-1.19 2.956-1.54 1.115-0.356 2.275-0.496 3.481-0.42 1.206 0.076 2.383 0.395 3.532 0.957 1.155 0.558 2.182 1.404 3.083 2.538v0c1.12 1.411 1.621 2.692 1.503 3.844-0.118 1.152-0.624 2.083-1.518 2.794v0c-0.772 0.613-1.642 0.97-2.612 1.071-0.975 0.106-1.925-0.02-2.851-0.378-0.926-0.358-1.709-0.939-2.347-1.742v0c-0.33-0.415-0.602-0.889-0.817-1.422-0.209-0.537-0.343-1.121-0.401-1.751v0c-0.932 0.87-1.425 1.73-1.479 2.58-0.054 0.85 0.192 1.618 0.737 2.305v0c0.385 0.484 0.858 0.894 1.419 1.23 0.567 0.331 1.162 0.583 1.785 0.756 0.614 0.172 1.177 0.237 1.69 0.194v0l0.014 0.263c-0.83 0.659-1.673 1.051-2.53 1.175-0.86 0.119-1.696 0.045-2.507-0.222-0.811-0.267-1.563-0.668-2.256-1.203-0.699-0.53-1.308-1.122-1.828-1.777zM211.587 54.846v0c0.406 0.511 0.884 0.808 1.436 0.891 0.546 0.087 1.085 0.054 1.614-0.098 0.531-0.162 0.949-0.363 1.253-0.603v0c0.367-0.292 0.591-0.638 0.67-1.041 0.081-0.412-0.024-0.801-0.315-1.168v0c-0.228-0.287-0.583-0.522-1.066-0.703-0.478-0.176-1.078-0.199-1.799-0.068-0.721 0.13-1.561 0.51-2.518 1.14v0c0.166 0.701 0.408 1.251 0.725 1.65z" fill="#000000" data-fill-palette-color="accent"></path><path d="M221.556 90.33v0c-0.491-1.412-0.612-2.68-0.362-3.803 0.243-1.121 0.752-2.079 1.526-2.873 0.776-0.788 1.704-1.37 2.783-1.745v0c1.027-0.357 2.127-0.517 3.298-0.478 1.17 0.032 2.311 0.283 3.424 0.751 1.113 0.469 2.119 1.159 3.019 2.07 0.906 0.908 1.597 2.046 2.072 3.413v0c0.592 1.701 0.642 3.076 0.151 4.125-0.491 1.049-1.276 1.761-2.355 2.136v0c-0.931 0.324-1.871 0.374-2.819 0.149-0.955-0.222-1.811-0.655-2.567-1.298-0.756-0.644-1.303-1.45-1.641-2.419v0c-0.174-0.501-0.275-1.038-0.301-1.611-0.02-0.576 0.046-1.171 0.199-1.786v0c-1.167 0.514-1.916 1.163-2.248 1.948-0.332 0.785-0.353 1.591-0.065 2.418v0c0.203 0.584 0.514 1.127 0.934 1.629 0.426 0.5 0.904 0.934 1.435 1.304 0.523 0.365 1.033 0.612 1.532 0.741v0l-0.074 0.252c-1.001 0.348-1.927 0.44-2.776 0.275-0.851-0.172-1.616-0.517-2.293-1.038-0.677-0.52-1.255-1.147-1.733-1.879-0.485-0.731-0.864-1.491-1.139-2.281zM229.606 88.275v0c0.214 0.616 0.568 1.054 1.062 1.314 0.487 0.262 1.006 0.409 1.556 0.441 0.555 0.023 1.015-0.029 1.381-0.157v0c0.443-0.154 0.768-0.408 0.977-0.76 0.212-0.362 0.242-0.764 0.087-1.207v0c-0.121-0.347-0.379-0.685-0.774-1.015-0.393-0.324-0.952-0.543-1.675-0.659-0.724-0.115-1.642-0.033-2.754 0.245v0c-0.075 0.717-0.028 1.316 0.14 1.798z" fill="#000000" data-fill-palette-color="accent"></path><path d="M6.301 161.412v0c-0.243-0.7-0.17-1.434 0.219-2.201 0.389-0.768 1.254-1.384 2.596-1.849v0c1.092-0.378 2.208-0.625 3.348-0.74 1.142-0.108 2.312-0.19 3.508-0.244 1.19-0.053 2.405-0.168 3.645-0.347 1.24-0.178 2.489-0.528 3.747-1.05v0c-0.26-0.5-0.577-0.969-0.951-1.407-0.368-0.441-0.824-0.84-1.366-1.199v0c1.233-0.427 2.272-0.669 3.116-0.724 0.84-0.046 1.544 0.181 2.113 0.681 0.569 0.501 1.066 1.364 1.492 2.591v0c0.229 0.661 0.438 1.42 0.626 2.275 0.18 0.851 0.372 1.727 0.576 2.627 0.204 0.9 0.442 1.742 0.714 2.526v0c0.263 0.758 0.572 1.413 0.929 1.965 0.359 0.559 0.788 0.935 1.287 1.129v0c-0.115 0.479-0.358 0.897-0.73 1.257-0.365 0.357-0.802 0.623-1.309 0.799v0c-0.527 0.182-1.079 0.237-1.659 0.164-0.585-0.07-1.127-0.304-1.623-0.699-0.497-0.396-0.888-1.005-1.173-1.827v0c-0.296-0.854-0.482-1.836-0.557-2.947-0.082-1.108-0.209-2.233-0.382-3.374v0c-0.397 0.245-0.802 0.468-1.214 0.669-0.415 0.194-0.847 0.369-1.296 0.524v0c-0.482 0.167-0.97 0.315-1.465 0.443-0.489 0.126-1 0.239-1.534 0.338v0c0.354 0.338 0.723 0.767 1.105 1.289 0.376 0.524 0.728 1.075 1.058 1.651 0.327 0.57 0.575 1.099 0.744 1.587v0c0.109 0.315 0.175 0.598 0.197 0.849v0c-0.342 0.342-0.805 0.614-1.389 0.816v0c-0.931 0.323-1.966 0.419-3.105 0.288v0l-0.16-0.182c0.142-0.855 0.156-1.791 0.041-2.808-0.115-1.017-0.313-2.056-0.595-3.117v0c-1.18 0.186-2.375 0.391-3.584 0.616-1.21 0.225-2.418 0.547-3.626 0.965v0c-0.25 0.087-0.513 0.181-0.786 0.284-0.265 0.106-0.533 0.217-0.802 0.331v0c-0.865-0.42-1.45-1.069-1.755-1.949z" fill="#000000" data-fill-palette-color="accent"></path><path d="M26.946 200.936v0c-0.932-1.186-1.467-2.356-1.605-3.51-0.128-1.153 0.047-2.233 0.526-3.241 0.479-1.007 1.172-1.868 2.081-2.582v0c0.86-0.676 1.856-1.191 2.987-1.544 1.126-0.349 2.299-0.485 3.519-0.407 1.215 0.083 2.402 0.411 3.563 0.986 1.156 0.569 2.188 1.431 3.096 2.585v0c1.121 1.427 1.62 2.721 1.495 3.882-0.125 1.161-0.641 2.099-1.549 2.813v0c-0.775 0.609-1.655 0.963-2.64 1.064-0.981 0.105-1.938-0.024-2.872-0.388-0.933-0.373-1.719-0.966-2.357-1.778v0c-0.332-0.422-0.606-0.903-0.822-1.442-0.211-0.543-0.344-1.13-0.399-1.761v0c-0.942 0.87-1.442 1.734-1.501 2.594-0.059 0.859 0.184 1.636 0.73 2.331v0c0.386 0.492 0.864 0.907 1.433 1.246 0.569 0.339 1.165 0.597 1.788 0.773 0.623 0.176 1.195 0.245 1.718 0.206v0l0.012 0.263c-0.844 0.664-1.699 1.055-2.566 1.173-0.866 0.119-1.711 0.039-2.534-0.238-0.819-0.272-1.576-0.68-2.271-1.223-0.7-0.539-1.311-1.14-1.832-1.802zM33.951 196.337v0c0.407 0.518 0.889 0.818 1.446 0.899 0.555 0.091 1.101 0.059 1.638-0.094 0.532-0.159 0.95-0.358 1.255-0.597v0c0.374-0.294 0.603-0.647 0.686-1.058 0.087-0.406-0.016-0.796-0.31-1.17v0c-0.231-0.294-0.587-0.533-1.069-0.716-0.487-0.179-1.093-0.208-1.819-0.087-0.727 0.131-1.576 0.513-2.548 1.147v0c0.162 0.712 0.402 1.27 0.721 1.676z" fill="#000000" data-fill-palette-color="accent"></path><path d="M54.282 226.399v0c-0.461-0.314-0.829-0.733-1.104-1.258-0.281-0.529-0.382-1.141-0.304-1.836 0.073-0.699 0.383-1.45 0.931-2.252v0c0.486-0.713 1.156-1.486 2.011-2.319 0.851-0.827 1.754-1.675 2.709-2.545 0.959-0.876 1.868-1.746 2.727-2.608 0.865-0.858 1.549-1.675 2.052-2.451v0c0.501-0.736 0.768-1.315 0.801-1.736v0l0.032-0.102c0.562-0.415 1.185-0.611 1.869-0.589 0.688 0.016 1.296 0.204 1.824 0.564v0c0.595 0.406 0.976 0.994 1.142 1.765 0.156 0.773-0.125 1.687-0.845 2.743v0c-0.383 0.562-0.905 1.184-1.569 1.867-0.667 0.689-1.394 1.406-2.182 2.152-0.782 0.75-1.563 1.485-2.341 2.205-0.778 0.72-1.478 1.39-2.098 2.012-0.63 0.623-1.102 1.165-1.416 1.626v0c-0.325 0.477-0.479 0.854-0.461 1.129 0.016 0.266 0.108 0.456 0.277 0.571v0c0.191 0.13 0.419 0.182 0.682 0.157 0.268-0.031 0.47-0.087 0.607-0.167v0l0.168 0.189c-0.434 0.601-0.979 1.027-1.636 1.278-0.662 0.248-1.337 0.339-2.025 0.274-0.689-0.075-1.306-0.298-1.851-0.669z" fill="#000000" data-fill-palette-color="accent"></path><path d="M84.526 241.176v0c-0.529-0.175-0.998-0.478-1.407-0.907-0.415-0.431-0.681-0.992-0.796-1.682-0.121-0.692-0.029-1.499 0.277-2.422v0c0.272-0.819 0.705-1.746 1.299-2.78 0.592-1.028 1.227-2.092 1.907-3.191 0.682-1.106 1.318-2.191 1.907-3.256 0.596-1.063 1.03-2.036 1.301-2.92v0c0.28-0.845 0.378-1.475 0.294-1.889v0l0.003-0.107c0.427-0.553 0.972-0.913 1.637-1.079 0.666-0.173 1.302-0.159 1.908 0.043v0c0.684 0.227 1.211 0.688 1.582 1.384 0.362 0.7 0.342 1.657-0.061 2.869v0c-0.214 0.645-0.546 1.387-0.996 2.226-0.452 0.845-0.955 1.735-1.508 2.668-0.547 0.936-1.096 1.856-1.646 2.762-0.551 0.906-1.04 1.742-1.467 2.51-0.435 0.772-0.741 1.423-0.916 1.952v0c-0.182 0.548-0.226 0.952-0.134 1.213 0.088 0.251 0.229 0.409 0.424 0.473v0c0.219 0.073 0.453 0.061 0.699-0.037 0.249-0.104 0.428-0.212 0.538-0.326v0l0.213 0.135c-0.253 0.697-0.66 1.256-1.223 1.678-0.569 0.42-1.193 0.693-1.872 0.819-0.683 0.117-1.338 0.072-1.963-0.136z" fill="#000000" data-fill-palette-color="accent"></path><path d="M147.311 244.356v0c-0.719 0.178-1.443 0.039-2.173-0.417-0.729-0.457-1.265-1.374-1.606-2.753v0c-0.278-1.121-0.422-2.255-0.433-3.401-0.004-1.147 0.021-2.319 0.074-3.516 0.055-1.19 0.05-2.411-0.014-3.662-0.065-1.251-0.3-2.527-0.707-3.826v0c-0.521 0.213-1.017 0.487-1.488 0.82-0.472 0.327-0.911 0.744-1.318 1.251v0c-0.314-1.267-0.46-2.323-0.438-3.168 0.03-0.841 0.32-1.522 0.87-2.043 0.55-0.521 1.455-0.938 2.715-1.251v0c0.679-0.168 1.454-0.308 2.322-0.418 0.864-0.102 1.754-0.214 2.669-0.335 0.915-0.122 1.775-0.282 2.58-0.482v0c0.778-0.193 1.459-0.442 2.041-0.747 0.589-0.307 1.003-0.7 1.242-1.179v0c0.466 0.158 0.861 0.438 1.185 0.84 0.322 0.396 0.548 0.855 0.677 1.376v0c0.134 0.541 0.139 1.096 0.013 1.667-0.123 0.577-0.405 1.095-0.843 1.553-0.439 0.459-1.081 0.793-1.926 1.003v0c-0.877 0.217-1.872 0.313-2.985 0.288-1.111-0.019-2.243 0.006-3.395 0.074v0c0.208 0.417 0.394 0.841 0.556 1.27 0.156 0.431 0.291 0.877 0.405 1.338v0c0.123 0.495 0.225 0.994 0.308 1.499 0.081 0.498 0.147 1.017 0.197 1.558v0c0.368-0.322 0.83-0.65 1.385-0.983 0.556-0.327 1.136-0.628 1.74-0.904 0.597-0.274 1.147-0.473 1.648-0.597v0c0.323-0.08 0.611-0.12 0.863-0.12v0c0.309 0.372 0.538 0.857 0.687 1.458v0c0.237 0.957 0.239 1.996 0.005 3.118v0l-0.195 0.143c-0.839-0.219-1.77-0.318-2.794-0.295-1.024 0.023-2.076 0.126-3.158 0.31v0c0.078 1.192 0.175 2.4 0.289 3.625 0.114 1.225 0.325 2.458 0.633 3.698v0c0.064 0.257 0.134 0.527 0.211 0.809 0.082 0.274 0.168 0.55 0.258 0.829v0c-0.496 0.823-1.196 1.347-2.1 1.57z" fill="#000000" data-fill-palette-color="accent"></path><path d="M185.927 228.974v0c-0.623 0.401-1.341 0.504-2.154 0.308-0.817-0.201-1.527-0.771-2.131-1.707v0c-0.291-0.451-0.569-0.996-0.834-1.634-0.265-0.638-0.52-1.302-0.763-1.994-0.249-0.688-0.492-1.328-0.728-1.921-0.239-0.598-0.471-1.071-0.695-1.419v0c-0.232-0.36-0.481-0.608-0.747-0.744-0.271-0.132-0.513-0.131-0.724 0.006v0c-0.326 0.21-0.517 0.653-0.575 1.328v0l-0.22-0.003c-0.197-0.269-0.351-0.639-0.461-1.111-0.109-0.471-0.13-0.98-0.06-1.525 0.069-0.546 0.253-1.089 0.551-1.628 0.303-0.534 0.768-1.004 1.397-1.409v0c0.92-0.593 1.757-0.756 2.51-0.489 0.756 0.257 1.375 0.76 1.857 1.508v0c0.077 0.12 0.155 0.248 0.234 0.383 0.073 0.139 0.14 0.274 0.2 0.404v0c-0.1-1.536-0.002-2.82 0.296-3.852 0.299-1.042 0.746-1.754 1.34-2.137v0c0.554-0.357 1.1-0.401 1.636-0.132 0.543 0.265 1.009 0.7 1.399 1.306v0c0.357 0.554 0.611 1.187 0.762 1.898 0.151 0.711 0.136 1.392-0.043 2.041-0.189 0.647-0.592 1.158-1.209 1.53v0l-0.136 0.015c-0.308-0.44-0.686-0.702-1.136-0.784-0.44-0.08-0.834-0.008-1.183 0.216v0c-0.469 0.302-0.755 0.818-0.858 1.547-0.11 0.734 0.121 1.543 0.691 2.429v0c0.346 0.537 0.779 1.078 1.301 1.624 0.527 0.542 0.93 1.03 1.21 1.464v0c0.335 0.52 0.519 1.076 0.553 1.669 0.04 0.589-0.051 1.132-0.272 1.63-0.221 0.498-0.557 0.892-1.008 1.183z" fill="#000000" data-fill-palette-color="accent"></path><path d="M217.387 201.057v0c-0.939 1.181-1.954 1.971-3.046 2.371-1.092 0.391-2.184 0.469-3.274 0.235-1.091-0.234-2.088-0.71-2.993-1.429v0c-0.856-0.681-1.587-1.531-2.191-2.551-0.599-1.015-1.002-2.125-1.207-3.33-0.2-1.201-0.154-2.432 0.138-3.694 0.287-1.256 0.888-2.459 1.801-3.608v0c1.13-1.42 2.274-2.204 3.433-2.351 1.159-0.147 2.19 0.14 3.094 0.859v0c0.771 0.613 1.319 1.388 1.643 2.323 0.329 0.93 0.424 1.891 0.286 2.885-0.148 0.994-0.543 1.895-1.187 2.703v0c-0.334 0.42-0.739 0.798-1.213 1.132-0.48 0.33-1.02 0.595-1.622 0.795v0c1.063 0.716 2.02 1.003 2.87 0.863 0.85-0.14 1.55-0.556 2.1-1.248v0c0.389-0.489 0.683-1.05 0.882-1.683 0.199-0.632 0.312-1.271 0.34-1.917 0.028-0.646-0.037-1.219-0.196-1.719v0l0.253-0.073c0.84 0.668 1.418 1.41 1.734 2.226 0.315 0.815 0.433 1.656 0.352 2.521-0.076 0.86-0.298 1.691-0.666 2.492-0.363 0.806-0.807 1.538-1.331 2.198zM211.296 195.301v0c0.41-0.516 0.591-1.054 0.542-1.615-0.04-0.561-0.196-1.085-0.469-1.571-0.277-0.481-0.568-0.842-0.871-1.084v0c-0.372-0.296-0.768-0.437-1.188-0.423-0.415 0.009-0.771 0.199-1.066 0.571v0c-0.233 0.293-0.383 0.694-0.451 1.205-0.062 0.515 0.049 1.112 0.335 1.791 0.295 0.677 0.863 1.416 1.704 2.214v0c0.655-0.321 1.143-0.684 1.464-1.088z" fill="#000000" data-fill-palette-color="accent"></path><path d="M236.941 165.39v0c-0.497 1.425-1.194 2.506-2.092 3.244-0.902 0.729-1.906 1.163-3.013 1.303-1.107 0.14-2.206 0.019-3.297-0.361v0c-1.033-0.36-2.003-0.922-2.911-1.685-0.901-0.76-1.647-1.676-2.238-2.745-0.585-1.068-0.948-2.245-1.09-3.533-0.144-1.281 0.026-2.614 0.51-4v0c0.597-1.713 1.419-2.831 2.464-3.352 1.045-0.521 2.113-0.591 3.204-0.211v0c0.931 0.324 1.703 0.875 2.318 1.651 0.617 0.769 1.024 1.646 1.222 2.628 0.188 0.987 0.113 1.968-0.228 2.944v0c-0.177 0.507-0.434 0.997-0.771 1.469-0.344 0.47-0.767 0.899-1.269 1.285v0c1.24 0.324 2.238 0.28 2.994-0.133 0.756-0.413 1.279-1.037 1.57-1.871v0c0.206-0.59 0.298-1.217 0.277-1.879-0.021-0.662-0.125-1.303-0.312-1.922-0.187-0.619-0.438-1.139-0.752-1.558v0l0.215-0.152c1.014 0.354 1.804 0.863 2.371 1.529 0.567 0.666 0.955 1.42 1.165 2.263 0.212 0.837 0.277 1.694 0.194 2.572-0.077 0.88-0.254 1.718-0.531 2.514zM229.292 161.967v0c0.217-0.623 0.21-1.19-0.022-1.702-0.223-0.517-0.544-0.96-0.962-1.329-0.421-0.363-0.814-0.608-1.18-0.735v0c-0.449-0.157-0.869-0.159-1.26-0.008-0.389 0.145-0.662 0.442-0.818 0.892v0c-0.123 0.353-0.132 0.782-0.028 1.286 0.111 0.507 0.414 1.033 0.907 1.579 0.502 0.542 1.282 1.052 2.339 1.528v0c0.512-0.52 0.853-1.023 1.024-1.511z" fill="#000000" data-fill-palette-color="accent"></path><path d="M0.172 125.139c0-4.753 3.853-8.607 8.607-8.607 4.753 0 8.607 3.853 8.606 8.607 0 4.753-3.853 8.607-8.606 8.606-4.753 0-8.607-3.853-8.607-8.606z" fill="#000000" data-fill-palette-color="accent"></path><path d="M227.046 125.139c0-4.753 3.853-8.607 8.607-8.607 4.753 0 8.607 3.853 8.606 8.607 0 4.753-3.853 8.607-8.606 8.606-4.753 0-8.607-3.853-8.607-8.606z" fill="#000000" data-fill-palette-color="accent"></path></g><g id="text-1"></g></svg></g></svg></g></svg></g><defs></defs></svg><rect width="395.52" height="141.21909335731002" fill="none" stroke="none" visibility="hidden"></rect></g></svg></g></svg>